<svg xmlns="http://www.w3.org/2000/svg" xmlns:xlink="http://www.w3.org/1999/xlink" zoomAndPan="magnify" preserveAspectRatio="xMidYMid meet" version="1.0" viewBox="220.5 322.04 1014.41 188.94"><defs><g/></defs><g fill="#ffffff" fill-opacity="1"><g transform="translate(200.964284, 508.445927)"><g><path d="M 19.53125 -186.40625 L 107.015625 -186.40625 L 107.015625 -161.796875 L 47.671875 -161.796875 L 47.671875 -109.046875 L 93.828125 -109.046875 L 93.828125 -84.203125 L 47.671875 -84.203125 L 47.671875 0 L 19.53125 0 Z M 19.53125 -186.40625 "/></g></g></g><g fill="#ffffff" fill-opacity="1"><g transform="translate(306.717391, 508.445927)"><g><path d="M 69.484375 2.53125 C 59.003906 2.53125 49.328125 0.0390625 40.453125 -4.9375 C 31.578125 -9.925781 24.472656 -17.023438 19.140625 -26.234375 C 13.816406 -35.453125 11.15625 -46.234375 11.15625 -58.578125 C 11.15625 -70.753906 13.476562 -81.40625 18.125 -90.53125 C 22.78125 -99.664062 29.414062 -106.769531 38.03125 -111.84375 C 46.65625 -116.914062 56.800781 -119.453125 68.46875 -119.453125 C 75.238281 -119.453125 81.582031 -118.265625 87.5 -115.890625 C 93.414062 -113.523438 98.398438 -110.609375 102.453125 -107.140625 C 106.515625 -103.679688 109.222656 -100.257812 110.578125 -96.875 L 111.078125 -116.40625 L 137.203125 -116.40625 L 137.203125 0 L 111.328125 0 L 110.828125 -20.546875 C 107.953125 -14.453125 102.707031 -9.082031 95.09375 -4.4375 C 87.488281 0.207031 78.953125 2.53125 69.484375 2.53125 Z M 74.046875 -20.28125 C 83.691406 -20.28125 91.8125 -23.617188 98.40625 -30.296875 C 105 -36.984375 108.296875 -45.738281 108.296875 -56.5625 L 108.296875 -58.328125 C 108.296875 -65.597656 106.769531 -72.109375 103.71875 -77.859375 C 100.675781 -83.609375 96.535156 -88.085938 91.296875 -91.296875 C 86.054688 -94.515625 80.304688 -96.125 74.046875 -96.125 C 63.234375 -96.125 54.863281 -92.613281 48.9375 -85.59375 C 43.019531 -78.570312 40.0625 -69.484375 40.0625 -58.328125 C 40.0625 -47.003906 42.976562 -37.832031 48.8125 -30.8125 C 54.644531 -23.789062 63.054688 -20.28125 74.046875 -20.28125 Z M 74.046875 -20.28125 "/></g></g></g><g fill="#ffffff" fill-opacity="1"><g transform="translate(462.684241, 508.445927)"><g><path d="M 58.078125 2.53125 C 49.960938 2.53125 41.550781 1.476562 32.84375 -0.625 C 24.132812 -2.738281 17.921875 -5.234375 14.203125 -8.109375 L 23.328125 -29.671875 C 33.472656 -22.566406 45.054688 -19.015625 58.078125 -19.015625 C 71.097656 -19.015625 77.609375 -22.820312 77.609375 -30.4375 C 77.609375 -33.8125 76.253906 -36.425781 73.546875 -38.28125 C 70.835938 -40.144531 66.019531 -42.347656 59.09375 -44.890625 L 49.453125 -48.4375 C 39.304688 -52.5 31.273438 -57.359375 25.359375 -63.015625 C 19.441406 -68.679688 16.484375 -76.164062 16.484375 -85.46875 C 16.484375 -96.113281 20.664062 -104.4375 29.03125 -110.4375 C 37.40625 -116.445312 48.609375 -119.453125 62.640625 -119.453125 C 69.578125 -119.453125 76.382812 -118.691406 83.0625 -117.171875 C 89.738281 -115.648438 94.851562 -113.703125 98.40625 -111.328125 L 88.515625 -89.53125 C 86.316406 -91.726562 82.804688 -93.628906 77.984375 -95.234375 C 73.160156 -96.835938 67.789062 -97.640625 61.875 -97.640625 C 49.875 -97.640625 43.875 -94.003906 43.875 -86.734375 C 43.875 -82.671875 45.476562 -79.582031 48.6875 -77.46875 C 51.90625 -75.363281 57.148438 -73.039062 64.421875 -70.5 C 65.097656 -70.332031 67.71875 -69.40625 72.28125 -67.71875 C 83.101562 -63.488281 91.132812 -58.664062 96.375 -53.25 C 101.613281 -47.84375 104.234375 -40.914062 104.234375 -32.46875 C 104.234375 -20.96875 99.878906 -12.257812 91.171875 -6.34375 C 82.460938 -0.425781 71.429688 2.53125 58.078125 2.53125 Z M 58.078125 2.53125 "/></g></g></g><g fill="#ffffff" fill-opacity="1"><g transform="translate(577.313477, 508.445927)"><g><path d="M 28.15625 -94.09375 L 7.609375 -94.09375 L 7.609375 -116.40625 L 28.15625 -116.40625 L 28.15625 -163.828125 L 55.796875 -169.921875 L 55.796875 -116.40625 L 82.671875 -116.40625 L 82.671875 -94.09375 L 55.796875 -94.09375 L 55.796875 0 L 28.15625 0 Z M 28.15625 -94.09375 "/></g></g></g><g fill="#ffffff" fill-opacity="1"><g transform="translate(664.299832, 508.445927)"><g><path d="M 19.78125 -186.40625 L 67.203125 -186.40625 C 93.921875 -186.40625 111.675781 -181.921875 120.46875 -172.953125 C 129.257812 -163.992188 133.65625 -153.175781 133.65625 -140.5 C 133.65625 -132.039062 131.796875 -124.050781 128.078125 -116.53125 C 124.359375 -109.007812 118.4375 -103.390625 110.3125 -99.671875 C 122.320312 -96.628906 131.15625 -91.300781 136.8125 -83.6875 C 142.476562 -76.082031 145.3125 -67.125 145.3125 -56.8125 C 145.3125 -45.988281 143.617188 -36.519531 140.234375 -28.40625 C 136.859375 -20.289062 129.84375 -13.523438 119.1875 -8.109375 C 108.539062 -2.703125 93.160156 0 73.046875 0 L 19.78125 0 Z M 71.765625 -107.28125 C 83.773438 -107.28125 92.316406 -110.195312 97.390625 -116.03125 C 102.460938 -121.863281 105 -129.257812 105 -138.21875 C 105 -154.28125 93.5 -162.3125 70.5 -162.3125 L 47.671875 -162.3125 L 47.671875 -107.28125 Z M 76.84375 -23.84375 C 92.226562 -23.84375 102.582031 -26.925781 107.90625 -33.09375 C 113.238281 -39.269531 115.90625 -47.09375 115.90625 -56.5625 C 115.90625 -65.519531 112.859375 -72.445312 106.765625 -77.34375 C 100.679688 -82.25 91.46875 -84.703125 79.125 -84.703125 L 47.671875 -84.703125 L 47.671875 -23.84375 Z M 76.84375 -23.84375 "/></g></g></g><g fill="#ffffff" fill-opacity="1"><g transform="translate(823.056336, 508.445927)"><g><path d="M 72.28125 2.53125 C 60.269531 2.53125 49.613281 -0.171875 40.3125 -5.578125 C 31.019531 -10.984375 23.835938 -18.335938 18.765625 -27.640625 C 13.691406 -36.941406 11.15625 -47.253906 11.15625 -58.578125 C 11.15625 -69.742188 13.648438 -79.972656 18.640625 -89.265625 C 23.628906 -98.566406 30.769531 -105.921875 40.0625 -111.328125 C 49.363281 -116.742188 60.101562 -119.453125 72.28125 -119.453125 C 84.445312 -119.453125 95.140625 -116.742188 104.359375 -111.328125 C 113.578125 -105.921875 120.675781 -98.566406 125.65625 -89.265625 C 130.644531 -79.972656 133.140625 -69.742188 133.140625 -58.578125 C 133.140625 -47.253906 130.601562 -36.941406 125.53125 -27.640625 C 120.457031 -18.335938 113.3125 -10.984375 104.09375 -5.578125 C 94.882812 -0.171875 84.28125 2.53125 72.28125 2.53125 Z M 73.046875 -19.78125 C 82.847656 -19.78125 90.578125 -23.414062 96.234375 -30.6875 C 101.898438 -37.957031 104.734375 -47.085938 104.734375 -58.078125 C 104.734375 -69.066406 101.691406 -78.320312 95.609375 -85.84375 C 89.523438 -93.363281 81.492188 -97.125 71.515625 -97.125 C 61.878906 -97.125 54.144531 -93.40625 48.3125 -85.96875 C 42.476562 -78.53125 39.5625 -69.234375 39.5625 -58.078125 C 39.5625 -47.253906 42.6875 -38.164062 48.9375 -30.8125 C 55.195312 -23.457031 63.234375 -19.78125 73.046875 -19.78125 Z M 73.046875 -19.78125 "/></g></g></g><g fill="#ffffff" fill-opacity="1"><g transform="translate(967.357311, 508.445927)"><g><path d="M 72.28125 2.53125 C 60.269531 2.53125 49.613281 -0.171875 40.3125 -5.578125 C 31.019531 -10.984375 23.835938 -18.335938 18.765625 -27.640625 C 13.691406 -36.941406 11.15625 -47.253906 11.15625 -58.578125 C 11.15625 -69.742188 13.648438 -79.972656 18.640625 -89.265625 C 23.628906 -98.566406 30.769531 -105.921875 40.0625 -111.328125 C 49.363281 -116.742188 60.101562 -119.453125 72.28125 -119.453125 C 84.445312 -119.453125 95.140625 -116.742188 104.359375 -111.328125 C 113.578125 -105.921875 120.675781 -98.566406 125.65625 -89.265625 C 130.644531 -79.972656 133.140625 -69.742188 133.140625 -58.578125 C 133.140625 -47.253906 130.601562 -36.941406 125.53125 -27.640625 C 120.457031 -18.335938 113.3125 -10.984375 104.09375 -5.578125 C 94.882812 -0.171875 84.28125 2.53125 72.28125 2.53125 Z M 73.046875 -19.78125 C 82.847656 -19.78125 90.578125 -23.414062 96.234375 -30.6875 C 101.898438 -37.957031 104.734375 -47.085938 104.734375 -58.078125 C 104.734375 -69.066406 101.691406 -78.320312 95.609375 -85.84375 C 89.523438 -93.363281 81.492188 -97.125 71.515625 -97.125 C 61.878906 -97.125 54.144531 -93.40625 48.3125 -85.96875 C 42.476562 -78.53125 39.5625 -69.234375 39.5625 -58.078125 C 39.5625 -47.253906 42.6875 -38.164062 48.9375 -30.8125 C 55.195312 -23.457031 63.234375 -19.78125 73.046875 -19.78125 Z M 73.046875 -19.78125 "/></g></g></g><g fill="#ffffff" fill-opacity="1"><g transform="translate(1111.658332, 508.445927)"><g><path d="M 123.25 0 L 91.046875 0 L 67.453125 -38.046875 L 60.859375 -50.96875 L 45.65625 -34.484375 L 45.65625 0 L 19.28125 0 L 19.28125 -186.40625 L 45.390625 -186.40625 L 45.390625 -84.203125 L 44.890625 -64.421875 L 89.265625 -116.40625 L 123 -116.40625 L 79.125 -67.71875 Z M 123.25 0 "/></g></g></g></svg>