<svg xmlns="http://www.w3.org/2000/svg" xmlns:xlink="http://www.w3.org/1999/xlink" width="500" zoomAndPan="magnify" viewBox="0 0 375 374.999991" height="500" preserveAspectRatio="xMidYMid meet" version="1.0"><defs><g/></defs><g fill="#ffffff" fill-opacity="1"><g transform="translate(88.82343, 206.249986)"><g><path d="M 3.71875 -35.4375 L 20.34375 -35.4375 L 20.34375 -30.765625 L 9.0625 -30.765625 L 9.0625 -20.734375 L 17.84375 -20.734375 L 17.84375 -16.015625 L 9.0625 -16.015625 L 9.0625 0 L 3.71875 0 Z M 3.71875 -35.4375 "/></g></g></g><g fill="#ffffff" fill-opacity="1"><g transform="translate(108.932197, 206.249986)"><g><path d="M 13.21875 0.484375 C 11.21875 0.484375 9.375 0.0078125 7.6875 -0.9375 C 6 -1.882812 4.648438 -3.234375 3.640625 -4.984375 C 2.628906 -6.742188 2.125 -8.796875 2.125 -11.140625 C 2.125 -13.453125 2.566406 -15.472656 3.453125 -17.203125 C 4.335938 -18.941406 5.597656 -20.296875 7.234375 -21.265625 C 8.867188 -22.234375 10.796875 -22.71875 13.015625 -22.71875 C 14.304688 -22.71875 15.515625 -22.488281 16.640625 -22.03125 C 17.765625 -21.582031 18.710938 -21.03125 19.484375 -20.375 C 20.253906 -19.71875 20.765625 -19.066406 21.015625 -18.421875 L 21.125 -22.125 L 26.09375 -22.125 L 26.09375 0 L 21.171875 0 L 21.078125 -3.90625 C 20.523438 -2.75 19.523438 -1.726562 18.078125 -0.84375 C 16.628906 0.0390625 15.007812 0.484375 13.21875 0.484375 Z M 14.078125 -3.859375 C 15.910156 -3.859375 17.453125 -4.492188 18.703125 -5.765625 C 19.960938 -7.035156 20.59375 -8.695312 20.59375 -10.75 L 20.59375 -11.09375 C 20.59375 -12.46875 20.300781 -13.703125 19.71875 -14.796875 C 19.144531 -15.890625 18.359375 -16.742188 17.359375 -17.359375 C 16.359375 -17.972656 15.265625 -18.28125 14.078125 -18.28125 C 12.023438 -18.28125 10.4375 -17.609375 9.3125 -16.265625 C 8.1875 -14.929688 7.625 -13.207031 7.625 -11.09375 C 7.625 -8.9375 8.175781 -7.191406 9.28125 -5.859375 C 10.394531 -4.523438 11.992188 -3.859375 14.078125 -3.859375 Z M 14.078125 -3.859375 "/></g></g></g><g fill="#ffffff" fill-opacity="1"><g transform="translate(138.58917, 206.249986)"><g><path d="M 11.046875 0.484375 C 9.503906 0.484375 7.90625 0.285156 6.25 -0.109375 C 4.59375 -0.515625 3.410156 -0.992188 2.703125 -1.546875 L 4.4375 -5.640625 C 6.363281 -4.285156 8.566406 -3.609375 11.046875 -3.609375 C 13.515625 -3.609375 14.75 -4.332031 14.75 -5.78125 C 14.75 -6.425781 14.492188 -6.925781 13.984375 -7.28125 C 13.472656 -7.632812 12.554688 -8.050781 11.234375 -8.53125 L 9.40625 -9.203125 C 7.476562 -9.972656 5.953125 -10.894531 4.828125 -11.96875 C 3.703125 -13.050781 3.140625 -14.476562 3.140625 -16.25 C 3.140625 -18.269531 3.929688 -19.851562 5.515625 -21 C 7.109375 -22.144531 9.238281 -22.71875 11.90625 -22.71875 C 13.226562 -22.71875 14.523438 -22.570312 15.796875 -22.28125 C 17.066406 -21.988281 18.035156 -21.617188 18.703125 -21.171875 L 16.828125 -17.015625 C 16.410156 -17.429688 15.742188 -17.789062 14.828125 -18.09375 C 13.910156 -18.40625 12.890625 -18.5625 11.765625 -18.5625 C 9.484375 -18.5625 8.34375 -17.867188 8.34375 -16.484375 C 8.34375 -15.710938 8.644531 -15.125 9.25 -14.71875 C 9.863281 -14.320312 10.863281 -13.882812 12.25 -13.40625 C 12.375 -13.375 12.875 -13.195312 13.75 -12.875 C 15.800781 -12.070312 17.320312 -11.15625 18.3125 -10.125 C 19.3125 -9.09375 19.8125 -7.773438 19.8125 -6.171875 C 19.8125 -3.984375 18.984375 -2.328125 17.328125 -1.203125 C 15.671875 -0.078125 13.578125 0.484375 11.046875 0.484375 Z M 11.046875 0.484375 "/></g></g></g><g fill="#ffffff" fill-opacity="1"><g transform="translate(160.385837, 206.249986)"><g><path d="M 5.359375 -17.890625 L 1.453125 -17.890625 L 1.453125 -22.125 L 5.359375 -22.125 L 5.359375 -31.15625 L 10.609375 -32.3125 L 10.609375 -22.125 L 15.71875 -22.125 L 15.71875 -17.890625 L 10.609375 -17.890625 L 10.609375 0 L 5.359375 0 Z M 5.359375 -17.890625 "/></g></g></g><g fill="#ffffff" fill-opacity="1"><g transform="translate(176.926234, 206.249986)"><g><path d="M 3.765625 -35.4375 L 12.78125 -35.4375 C 17.851562 -35.4375 21.222656 -34.582031 22.890625 -32.875 C 24.566406 -31.175781 25.40625 -29.125 25.40625 -26.71875 C 25.40625 -25.101562 25.050781 -23.582031 24.34375 -22.15625 C 23.644531 -20.726562 22.519531 -19.660156 20.96875 -18.953125 C 23.257812 -18.367188 24.941406 -17.351562 26.015625 -15.90625 C 27.085938 -14.46875 27.625 -12.765625 27.625 -10.796875 C 27.625 -8.742188 27.300781 -6.945312 26.65625 -5.40625 C 26.019531 -3.863281 24.6875 -2.578125 22.65625 -1.546875 C 20.632812 -0.515625 17.710938 0 13.890625 0 L 3.765625 0 Z M 13.640625 -20.390625 C 15.921875 -20.390625 17.546875 -20.941406 18.515625 -22.046875 C 19.484375 -23.160156 19.96875 -24.570312 19.96875 -26.28125 C 19.96875 -29.332031 17.78125 -30.859375 13.40625 -30.859375 L 9.0625 -30.859375 L 9.0625 -20.390625 Z M 14.609375 -4.53125 C 17.535156 -4.53125 19.503906 -5.113281 20.515625 -6.28125 C 21.523438 -7.457031 22.03125 -8.945312 22.03125 -10.75 C 22.03125 -12.457031 21.453125 -13.773438 20.296875 -14.703125 C 19.140625 -15.640625 17.390625 -16.109375 15.046875 -16.109375 L 9.0625 -16.109375 L 9.0625 -4.53125 Z M 14.609375 -4.53125 "/></g></g></g><g fill="#ffffff" fill-opacity="1"><g transform="translate(207.113652, 206.249986)"><g><path d="M 13.75 0.484375 C 11.457031 0.484375 9.425781 -0.03125 7.65625 -1.0625 C 5.894531 -2.09375 4.53125 -3.488281 3.5625 -5.25 C 2.601562 -7.019531 2.125 -8.984375 2.125 -11.140625 C 2.125 -13.265625 2.597656 -15.207031 3.546875 -16.96875 C 4.492188 -18.738281 5.847656 -20.140625 7.609375 -21.171875 C 9.378906 -22.203125 11.425781 -22.71875 13.75 -22.71875 C 16.0625 -22.71875 18.09375 -22.203125 19.84375 -21.171875 C 21.59375 -20.140625 22.941406 -18.738281 23.890625 -16.96875 C 24.835938 -15.207031 25.3125 -13.265625 25.3125 -11.140625 C 25.3125 -8.984375 24.828125 -7.019531 23.859375 -5.25 C 22.898438 -3.488281 21.546875 -2.09375 19.796875 -1.0625 C 18.046875 -0.03125 16.03125 0.484375 13.75 0.484375 Z M 13.890625 -3.765625 C 15.753906 -3.765625 17.222656 -4.453125 18.296875 -5.828125 C 19.378906 -7.210938 19.921875 -8.953125 19.921875 -11.046875 C 19.921875 -13.128906 19.335938 -14.882812 18.171875 -16.3125 C 17.015625 -17.75 15.488281 -18.46875 13.59375 -18.46875 C 11.757812 -18.46875 10.285156 -17.757812 9.171875 -16.34375 C 8.066406 -14.925781 7.515625 -13.160156 7.515625 -11.046875 C 7.515625 -8.984375 8.109375 -7.253906 9.296875 -5.859375 C 10.492188 -4.460938 12.023438 -3.765625 13.890625 -3.765625 Z M 13.890625 -3.765625 "/></g></g></g><g fill="#ffffff" fill-opacity="1"><g transform="translate(234.552382, 206.249986)"><g><path d="M 13.75 0.484375 C 11.457031 0.484375 9.425781 -0.03125 7.65625 -1.0625 C 5.894531 -2.09375 4.53125 -3.488281 3.5625 -5.25 C 2.601562 -7.019531 2.125 -8.984375 2.125 -11.140625 C 2.125 -13.265625 2.597656 -15.207031 3.546875 -16.96875 C 4.492188 -18.738281 5.847656 -20.140625 7.609375 -21.171875 C 9.378906 -22.203125 11.425781 -22.71875 13.75 -22.71875 C 16.0625 -22.71875 18.09375 -22.203125 19.84375 -21.171875 C 21.59375 -20.140625 22.941406 -18.738281 23.890625 -16.96875 C 24.835938 -15.207031 25.3125 -13.265625 25.3125 -11.140625 C 25.3125 -8.984375 24.828125 -7.019531 23.859375 -5.25 C 22.898438 -3.488281 21.546875 -2.09375 19.796875 -1.0625 C 18.046875 -0.03125 16.03125 0.484375 13.75 0.484375 Z M 13.890625 -3.765625 C 15.753906 -3.765625 17.222656 -4.453125 18.296875 -5.828125 C 19.378906 -7.210938 19.921875 -8.953125 19.921875 -11.046875 C 19.921875 -13.128906 19.335938 -14.882812 18.171875 -16.3125 C 17.015625 -17.75 15.488281 -18.46875 13.59375 -18.46875 C 11.757812 -18.46875 10.285156 -17.757812 9.171875 -16.34375 C 8.066406 -14.925781 7.515625 -13.160156 7.515625 -11.046875 C 7.515625 -8.984375 8.109375 -7.253906 9.296875 -5.859375 C 10.492188 -4.460938 12.023438 -3.765625 13.890625 -3.765625 Z M 13.890625 -3.765625 "/></g></g></g><g fill="#ffffff" fill-opacity="1"><g transform="translate(261.991112, 206.249986)"><g><path d="M 23.4375 0 L 17.3125 0 L 12.828125 -7.234375 L 11.578125 -9.6875 L 8.671875 -6.5625 L 8.671875 0 L 3.671875 0 L 3.671875 -35.4375 L 8.625 -35.4375 L 8.625 -16.015625 L 8.53125 -12.25 L 16.96875 -22.125 L 23.390625 -22.125 L 15.046875 -12.875 Z M 23.4375 0 "/></g></g></g></svg>